<svg width="55" height="55" viewBox="0 0 55 55" fill="none" xmlns="http://www.w3.org/2000/svg">
<circle cx="27.5" cy="27.5" r="27.5" fill="white"/>
<path d="M40.5 23.76V33.9375C40.5001 34.9752 40.1031 35.9735 39.3904 36.7278C38.6778 37.482 37.7035 37.935 36.6675 37.9938L36.4375 38H19.5625C18.5248 38.0001 17.5265 37.6031 16.7722 36.8904C16.018 36.1778 15.565 35.2035 15.5063 34.1675L15.5 33.9375V23.76L27.565 30.08C27.6992 30.1503 27.8485 30.187 28 30.187C28.1515 30.187 28.3008 30.1503 28.435 30.08L40.5 23.76ZM19.5625 18H36.4375C37.4445 17.9999 38.4156 18.3737 39.1625 19.0491C39.9095 19.7244 40.379 20.6531 40.48 21.655L28 28.1925L15.52 21.655C15.6169 20.6929 16.0538 19.7969 16.7522 19.1281C17.4506 18.4593 18.3646 18.0615 19.33 18.0063L19.5625 18H36.4375H19.5625Z" fill="#0099E1"/>
</svg>
